# xmcd
#
# Track frame offsets:
#	150
#	18391
#	38344
#	61918
#	81246
#	101287
#	122578
#	143844
#	163683
#	183036
#	204556
#	225700
#	246245
#	268220
#	294019
#
# Disc length: 4141 seconds
#
# Revision: 0
# Processed by: cddbd v1.5.2PL0 Copyright (c) Steve Scherf et al.
# Submitted via: EasyCDDAExtractor 15.2.0.1
#
DISCID=c0102b0f
DTITLE=Elaine de Jesus  - Escolhidos
DYEAR=1900
DGENRE=
TTITLE0=Que ele cresça
TTITLE1=Provocando milagres
TTITLE2=Escolhidos
TTITLE3=Então será curado
TTITLE4=Salmos 23
TTITLE5=Hoje tem festa
TTITLE6=O senhor do reino é ele
TTITLE7=A demora de Deus
TTITLE8=Sacerdote fiel
TTITLE9=Atos 2
TTITLE10=Anonimato
TTITLE11=Parceria
TTITLE12=Surpresa da glória
TTITLE13=Quero mergulhar
TTITLE14=Ressuscitou, ele está vivo
EXTD=
EXTT0=
EXTT1=
EXTT2=
EXTT3=
EXTT4=
EXTT5=
EXTT6=
EXTT7=
EXTT8=
EXTT9=
EXTT10=
EXTT11=
EXTT12=
EXTT13=
EXTT14=
PLAYORDER=
